<svg width="16" height="15" viewBox="0 0 16 15" fill="none" xmlns="http://www.w3.org/2000/svg">
<path d="M11.5938 2.45937V1.64062C11.5938 1.5163 11.5444 1.39708 11.4565 1.30917C11.3685 1.22126 11.2493 1.17188 11.125 1.17188C11.0007 1.17188 10.8815 1.22126 10.7935 1.30917C10.7056 1.39708 10.6562 1.5163 10.6562 1.64062V2.42188H5.34375V1.64062C5.34375 1.5163 5.29436 1.39708 5.20646 1.30917C5.11855 1.22126 4.99932 1.17188 4.875 1.17188C4.75068 1.17188 4.63145 1.22126 4.54354 1.30917C4.45564 1.39708 4.40625 1.5163 4.40625 1.64062V2.45937C3.70958 2.57205 3.07565 2.92872 2.61769 3.46568C2.15974 4.00263 1.90758 4.6849 1.90625 5.39062V10.8594C1.90625 11.2492 1.98304 11.6353 2.13223 11.9955C2.28143 12.3557 2.5001 12.6829 2.77578 12.9586C3.33253 13.5153 4.08764 13.8281 4.875 13.8281H11.125C11.5149 13.8281 11.9009 13.7513 12.2611 13.6021C12.6213 13.4529 12.9485 13.2343 13.2242 12.9586C13.4999 12.6829 13.7186 12.3557 13.8678 11.9955C14.017 11.6353 14.0938 11.2492 14.0938 10.8594V5.39062C14.0924 4.6849 13.8403 4.00263 13.3823 3.46568C12.9243 2.92872 12.2904 2.57205 11.5938 2.45937ZM5.75 11.2094H5.125C5.00068 11.2094 4.88145 11.16 4.79354 11.0721C4.70564 10.9842 4.65625 10.8649 4.65625 10.7406C4.65625 10.6163 4.70564 10.4971 4.79354 10.4092C4.88145 10.3213 5.00068 10.2719 5.125 10.2719H5.75C5.87432 10.2719 5.99355 10.3213 6.08146 10.4092C6.16936 10.4971 6.21875 10.6163 6.21875 10.7406C6.21875 10.8649 6.16936 10.9842 6.08146 11.0721C5.99355 11.16 5.87432 11.2094 5.75 11.2094ZM5.75 9.28437H5.125C5.00068 9.28437 4.88145 9.23499 4.79354 9.14708C4.70564 9.05917 4.65625 8.93994 4.65625 8.81562C4.65625 8.6913 4.70564 8.57208 4.79354 8.48417C4.88145 8.39626 5.00068 8.34687 5.125 8.34687H5.75C5.87432 8.34687 5.99355 8.39626 6.08146 8.48417C6.16936 8.57208 6.21875 8.6913 6.21875 8.81562C6.21875 8.93994 6.16936 9.05917 6.08146 9.14708C5.99355 9.23499 5.87432 9.28437 5.75 9.28437ZM8.31875 11.2094H7.69375C7.56943 11.2094 7.4502 11.16 7.36229 11.0721C7.27439 10.9842 7.225 10.8649 7.225 10.7406C7.225 10.6163 7.27439 10.4971 7.36229 10.4092C7.4502 10.3213 7.56943 10.2719 7.69375 10.2719H8.31875C8.44307 10.2719 8.5623 10.3213 8.65021 10.4092C8.73811 10.4971 8.7875 10.6163 8.7875 10.7406C8.7875 10.8649 8.73811 10.9842 8.65021 11.0721C8.5623 11.16 8.44307 11.2094 8.31875 11.2094ZM8.31875 9.28437H7.69375C7.56943 9.28437 7.4502 9.23499 7.36229 9.14708C7.27439 9.05917 7.225 8.93994 7.225 8.81562C7.225 8.6913 7.27439 8.57208 7.36229 8.48417C7.4502 8.39626 7.56943 8.34687 7.69375 8.34687H8.31875C8.44307 8.34687 8.5623 8.39626 8.65021 8.48417C8.73811 8.57208 8.7875 8.6913 8.7875 8.81562C8.7875 8.93994 8.73811 9.05917 8.65021 9.14708C8.5623 9.23499 8.44307 9.28437 8.31875 9.28437ZM10.8875 11.2094H10.2625C10.1382 11.2094 10.019 11.16 9.93104 11.0721C9.84314 10.9842 9.79375 10.8649 9.79375 10.7406C9.79375 10.6163 9.84314 10.4971 9.93104 10.4092C10.019 10.3213 10.1382 10.2719 10.2625 10.2719H10.8875C11.0118 10.2719 11.131 10.3213 11.219 10.4092C11.3069 10.4971 11.3563 10.6163 11.3563 10.7406C11.3563 10.8649 11.3069 10.9842 11.219 11.0721C11.131 11.16 11.0118 11.2094 10.8875 11.2094ZM10.8875 9.28437H10.2625C10.1382 9.28437 10.019 9.23499 9.93104 9.14708C9.84314 9.05917 9.79375 8.93994 9.79375 8.81562C9.79375 8.6913 9.84314 8.57208 9.93104 8.48417C10.019 8.39626 10.1382 8.34687 10.2625 8.34687H10.8875C11.0118 8.34687 11.131 8.39626 11.219 8.48417C11.3069 8.57208 11.3563 8.6913 11.3563 8.81562C11.3563 8.93994 11.3069 9.05917 11.219 9.14708C11.131 9.23499 11.0118 9.28437 10.8875 9.28437ZM13.1562 6.15937H2.84375V5.37812C2.84436 4.92194 2.999 4.47932 3.28259 4.12199C3.56618 3.76467 3.96212 3.51357 4.40625 3.40937V4.12812C4.40625 4.25245 4.45564 4.37167 4.54354 4.45958C4.63145 4.54749 4.75068 4.59687 4.875 4.59687C4.99932 4.59687 5.11855 4.54749 5.20646 4.45958C5.29436 4.37167 5.34375 4.25245 5.34375 4.12812V3.34687H10.6562V4.12812C10.6562 4.25245 10.7056 4.37167 10.7935 4.45958C10.8815 4.54749 11.0007 4.59687 11.125 4.59687C11.2493 4.59687 11.3685 4.54749 11.4565 4.45958C11.5444 4.37167 11.5938 4.25245 11.5938 4.12812V3.40937C12.0379 3.51357 12.4338 3.76467 12.7174 4.12199C13.001 4.47932 13.1556 4.92194 13.1562 5.37812V6.15937Z" fill="#DE7A72"/>
</svg>
